<svg width="40px" height="40px" viewBox="0 0 24 24" fill="none" xmlns="http://www.w3.org/2000/svg">
  <path d="M16.5 8.89001V18.5M16.5 8.89001V5.57656C16.5 5.36922 16.5 5.26554 16.5347 5.17733C16.5653 5.09943 16.615 5.03047 16.6792 4.97678C16.752 4.91597 16.8503 4.88318 17.047 4.81761L21.447 3.35095C21.8025 3.23245 21.9803 3.17319 22.1218 3.20872C22.2456 3.23982 22.3529 3.31713 22.4216 3.42479C22.5 3.54779 22.5 3.73516 22.5 4.10989V7.42335C22.5 7.63069 22.5 7.73436 22.4653 7.82258C22.4347 7.90048 22.385 7.96943 22.3208 8.02313C22.248 8.08394 22.1497 8.11672 21.953 8.18229L17.553 9.64896C17.1975 9.76746 17.0197 9.82671 16.8782 9.79119C16.7544 9.76009 16.6471 9.68278 16.5784 9.57512C16.5 9.45212 16.5 9.26475 16.5 8.89001ZM16.5 18.5C16.5 19.8807 14.933 21 13 21C11.067 21 9.5 19.8807 9.5 18.5C9.5 17.1192 11.067 16 13 16C14.933 16 16.5 17.1192 16.5 18.5Z" stroke="#ffeb3b" stroke-width="2" stroke-linecap="round" stroke-linejoin="round"/>
</svg>

